<?xml version="1.0" encoding="UTF-8"?>
<svg width="400px" height="300px" viewBox="0 0 400 300" xmlns="http://www.w3.org/2000/svg">
  <defs>
    <linearGradient id="gradient3" x1="0%" y1="0%" x2="100%" y2="100%">
      <stop offset="0%" stop-color="#0d6efd" stop-opacity="0.7"/>
      <stop offset="100%" stop-color="#0d6efd" stop-opacity="0.3"/>
    </linearGradient>
  </defs>
  
  <!-- Budget sheet -->
  <rect x="75" y="50" width="250" height="200" rx="10" fill="#ffffff" stroke="#0d6efd" stroke-width="2"/>
  
  <!-- Header -->
  <rect x="75" y="50" width="250" height="40" rx="10" fill="#0d6efd" opacity="0.2"/>
  <text x="200" y="75" font-family="Arial" font-size="18" fill="#0d6efd" text-anchor="middle" font-weight="bold">ORÇAMENTO MENSAL</text>
  
  <!-- Budget categories -->
  <line x1="100" y1="110" x2="300" y2="110" stroke="#0d6efd" stroke-width="1"/>
  <text x="110" y="130" font-family="Arial" font-size="14" fill="#0d6efd">Necessidades</text>
  <rect x="250" y="118" width="40" height="20" rx="5" fill="#0d6efd" opacity="0.7"/>
  <text x="270" y="132" font-family="Arial" font-size="12" fill="#ffffff" text-anchor="middle">50%</text>
  
  <line x1="100" y1="150" x2="300" y2="150" stroke="#0d6efd" stroke-width="1"/>
  <text x="110" y="170" font-family="Arial" font-size="14" fill="#0d6efd">Desejos</text>
  <rect x="250" y="158" width="40" height="20" rx="5" fill="#0d6efd" opacity="0.5"/>
  <text x="270" y="172" font-family="Arial" font-size="12" fill="#ffffff" text-anchor="middle">30%</text>
  
  <line x1="100" y1="190" x2="300" y2="190" stroke="#0d6efd" stroke-width="1"/>
  <text x="110" y="210" font-family="Arial" font-size="14" fill="#0d6efd">Investimentos</text>
  <rect x="250" y="198" width="40" height="20" rx="5" fill="#0d6efd" opacity="0.3"/>
  <text x="270" y="212" font-family="Arial" font-size="12" fill="#ffffff" text-anchor="middle">20%</text>
  
  <!-- Calculator -->
  <rect x="320" y="180" width="40" height="60" rx="5" fill="#0d6efd" opacity="0.2"/>
  <line x1="330" y1="190" x2="350" y2="190" stroke="#0d6efd" stroke-width="1"/>
  <line x1="330" y1="200" x2="350" y2="200" stroke="#0d6efd" stroke-width="1"/>
  <line x1="330" y1="210" x2="350" y2="210" stroke="#0d6efd" stroke-width="1"/>
  <circle cx="340" cy="225" r="8" fill="#0d6efd"/>
</svg>
